<?xml version="1.0" standalone="no"?>
<!DOCTYPE svg PUBLIC "-//W3C//DTD SVG 20010904//EN"
 "http://www.w3.org/TR/2001/REC-SVG-20010904/DTD/svg10.dtd">
<svg version="1.0" xmlns="http://www.w3.org/2000/svg"
 width="700.000000pt" height="700.000000pt" viewBox="0 0 700.000000 700.000000"
 preserveAspectRatio="xMidYMid meet">
<metadata>
Created by potrace 1.14, written by Peter Selinger 2001-2017
</metadata>
<g transform="translate(0.000000,700.000000) scale(0.100000,-0.100000)"
fill="#000000" stroke="none">
<path d="M1319 6996 c-2 -2 -29 -7 -59 -10 -30 -3 -64 -7 -75 -10 -11 -2 -42
-10 -70 -16 -27 -6 -57 -13 -65 -15 -40 -8 -212 -78 -275 -111 -204 -108 -341
-227 -514 -449 -29 -38 -118 -201 -146 -269 -33 -80 -73 -207 -81 -256 -3 -14
-7 -31 -9 -38 -3 -7 -8 -39 -12 -70 -10 -70 -11 -4453 -1 -4502 49 -260 112
-424 233 -605 67 -101 101 -142 194 -233 209 -205 456 -331 766 -391 97 -19
164 -20 2285 -20 1202 0 2205 4 2230 8 25 5 66 12 93 15 26 4 58 11 72 16 14
5 25 8 25 6 0 -17 288 98 365 147 178 111 280 198 396 337 168 201 287 479
318 740 9 76 8 4391 -1 4465 -32 262 -146 527 -316 735 -199 243 -501 429
-802 494 -41 9 -88 19 -105 23 -31 8 -4438 16 -4446 9z"/>
</g>
</svg>
